<?xml version="1.0" encoding="UTF-8"?>
<!DOCTYPE svg PUBLIC "-//W3C//DTD SVG 1.1//EN" "http://www.w3.org/Graphics/SVG/1.1/DTD/svg11.dtd">
<!-- Creator: CorelDRAW -->
<svg xmlns="http://www.w3.org/2000/svg" xml:space="preserve" width="7.8056mm" height="7.1mm" version="1.1" style="shape-rendering:geometricPrecision; text-rendering:geometricPrecision; image-rendering:optimizeQuality; fill-rule:evenodd; clip-rule:evenodd"
viewBox="0 0 15.81 14.38"
 xmlns:xlink="http://www.w3.org/1999/xlink"
 xmlns:xodm="http://www.corel.com/coreldraw/odm/2003">
 <defs>
  <style type="text/css">
   <![CDATA[
    .str0 {stroke:#16A34A;stroke-width:1.52;stroke-linecap:round;stroke-linejoin:round;stroke-miterlimit:4}
    .fil0 {fill:none;fill-rule:nonzero}
   ]]>
  </style>
 </defs>
 <g id="Layer_x0020_1">
  <metadata id="CorelCorpID_0Corel-Layer"/>
  <g id="_1986276067760">
   <path class="fil0 str0" d="M10.76 13.62l0 -1.43c0,-0.19 -0.02,-0.37 -0.05,-0.56 -0.04,-0.18 -0.09,-0.36 -0.16,-0.54 -0.07,-0.17 -0.16,-0.34 -0.26,-0.49 -0.1,-0.16 -0.22,-0.3 -0.36,-0.43 -0.13,-0.13 -0.28,-0.25 -0.43,-0.36 -0.16,-0.1 -0.32,-0.19 -0.49,-0.26 -0.17,-0.07 -0.35,-0.13 -0.54,-0.16 -0.18,-0.04 -0.37,-0.05 -0.56,-0.05l-4.29 0c-0.19,0 -0.37,0.02 -0.56,0.05 -0.18,0.04 -0.36,0.09 -0.54,0.16 -0.17,0.07 -0.34,0.16 -0.49,0.26 -0.16,0.1 -0.3,0.22 -0.43,0.36 -0.13,0.13 -0.25,0.28 -0.36,0.43 -0.1,0.16 -0.19,0.32 -0.26,0.49 -0.07,0.17 -0.13,0.35 -0.16,0.54 -0.04,0.18 -0.05,0.37 -0.05,0.56l0 1.43"/>
   <path class="fil0 str0" d="M8.62 3.62c0,0.19 -0.02,0.37 -0.06,0.56 -0.04,0.18 -0.09,0.36 -0.16,0.54 -0.07,0.17 -0.16,0.34 -0.26,0.49 -0.1,0.16 -0.22,0.3 -0.36,0.43 -0.13,0.13 -0.28,0.25 -0.43,0.36 -0.16,0.1 -0.32,0.19 -0.49,0.26 -0.17,0.07 -0.35,0.13 -0.54,0.16 -0.18,0.04 -0.37,0.05 -0.56,0.05 -0.19,0 -0.37,-0.02 -0.56,-0.05 -0.18,-0.04 -0.36,-0.09 -0.54,-0.16 -0.17,-0.07 -0.34,-0.16 -0.49,-0.26 -0.16,-0.1 -0.3,-0.22 -0.43,-0.36 -0.13,-0.13 -0.25,-0.28 -0.36,-0.43 -0.1,-0.16 -0.19,-0.32 -0.26,-0.49 -0.07,-0.17 -0.13,-0.35 -0.16,-0.54 -0.04,-0.18 -0.06,-0.37 -0.06,-0.56 0,-0.19 0.02,-0.37 0.06,-0.56 0.04,-0.18 0.09,-0.36 0.16,-0.54 0.07,-0.17 0.16,-0.34 0.26,-0.49 0.1,-0.16 0.22,-0.3 0.36,-0.43 0.13,-0.13 0.28,-0.25 0.43,-0.36 0.16,-0.1 0.32,-0.19 0.49,-0.26 0.17,-0.07 0.35,-0.13 0.54,-0.16 0.18,-0.04 0.37,-0.05 0.56,-0.05 0.19,0 0.37,0.02 0.56,0.05 0.18,0.04 0.36,0.09 0.54,0.16 0.17,0.07 0.34,0.16 0.49,0.26 0.16,0.1 0.3,0.22 0.43,0.36 0.13,0.13 0.25,0.28 0.36,0.43 0.1,0.16 0.19,0.32 0.26,0.49 0.07,0.17 0.13,0.35 0.16,0.54 0.04,0.18 0.06,0.37 0.06,0.56z"/>
   <path class="fil0 str0" d="M15.05 13.62l0 -1.43c-0,-0.32 -0.05,-0.62 -0.15,-0.92 -0.1,-0.3 -0.25,-0.57 -0.44,-0.82 -0.19,-0.25 -0.42,-0.46 -0.69,-0.64 -0.26,-0.17 -0.55,-0.3 -0.86,-0.38"/>
   <path class="fil0 str0" d="M10.76 0.85c0.31,0.08 0.59,0.21 0.86,0.38 0.27,0.17 0.5,0.39 0.69,0.64 0.19,0.25 0.34,0.53 0.45,0.83 0.1,0.3 0.15,0.61 0.15,0.93 0,0.32 -0.05,0.63 -0.15,0.93 -0.1,0.3 -0.25,0.58 -0.45,0.83 -0.19,0.25 -0.42,0.46 -0.69,0.64 -0.27,0.17 -0.55,0.3 -0.86,0.38"/>
  </g>
 </g>
</svg>
