<?xml version="1.0" encoding="UTF-8"?>
<!DOCTYPE svg PUBLIC "-//W3C//DTD SVG 1.1//EN" "http://www.w3.org/Graphics/SVG/1.1/DTD/svg11.dtd">
<!-- Creator: CorelDRAW -->
<svg xmlns="http://www.w3.org/2000/svg" xml:space="preserve" width="6.1444mm" height="7.5555mm" version="1.1" style="shape-rendering:geometricPrecision; text-rendering:geometricPrecision; image-rendering:optimizeQuality; fill-rule:evenodd; clip-rule:evenodd"
viewBox="0 0 10.64 13.08"
 xmlns:xlink="http://www.w3.org/1999/xlink"
 xmlns:xodm="http://www.corel.com/coreldraw/odm/2003">
 <defs>
  <style type="text/css">
   <![CDATA[
    .str0 {stroke:#16A34A;stroke-width:0.87;stroke-linecap:round;stroke-linejoin:round;stroke-miterlimit:4}
    .fil0 {fill:none;fill-rule:nonzero}
   ]]>
  </style>
 </defs>
 <g id="Layer_x0020_1">
  <metadata id="CorelCorpID_0Corel-Layer"/>
  <g id="_1986276056384">
   <path class="fil0 str0" d="M10.21 5.32c0,3.05 -3.38,6.23 -4.52,7.21 -0.11,0.08 -0.23,0.12 -0.37,0.12 -0.14,0 -0.26,-0.04 -0.37,-0.12 -1.14,-0.98 -4.52,-4.16 -4.52,-7.21 0,-0.32 0.03,-0.64 0.09,-0.95 0.06,-0.31 0.16,-0.62 0.28,-0.92 0.12,-0.3 0.27,-0.58 0.45,-0.84 0.18,-0.27 0.38,-0.51 0.61,-0.74 0.23,-0.23 0.47,-0.43 0.74,-0.61 0.27,-0.18 0.55,-0.33 0.84,-0.45 0.3,-0.12 0.6,-0.22 0.92,-0.28 0.31,-0.06 0.63,-0.09 0.95,-0.09 0.32,0 0.64,0.03 0.95,0.09 0.31,0.06 0.62,0.16 0.92,0.28 0.3,0.12 0.58,0.27 0.84,0.45 0.27,0.18 0.51,0.38 0.74,0.61 0.23,0.23 0.43,0.47 0.61,0.74 0.18,0.27 0.33,0.55 0.45,0.84 0.12,0.3 0.22,0.6 0.28,0.92 0.06,0.31 0.09,0.63 0.09,0.95"/>
   <path class="fil0 str0" d="M7.15 5.32c0,0.24 -0.05,0.48 -0.14,0.7 -0.09,0.22 -0.23,0.42 -0.4,0.59 -0.17,0.17 -0.37,0.3 -0.59,0.4 -0.22,0.09 -0.46,0.14 -0.7,0.14 -0.24,0 -0.48,-0.05 -0.7,-0.14 -0.22,-0.09 -0.42,-0.23 -0.59,-0.4 -0.17,-0.17 -0.3,-0.37 -0.4,-0.59 -0.09,-0.22 -0.14,-0.46 -0.14,-0.7 0,-0.24 0.05,-0.48 0.14,-0.7 0.09,-0.22 0.23,-0.42 0.4,-0.59 0.17,-0.17 0.37,-0.3 0.59,-0.4 0.22,-0.09 0.46,-0.14 0.7,-0.14 0.24,0 0.48,0.05 0.7,0.14 0.22,0.09 0.42,0.23 0.59,0.4 0.17,0.17 0.3,0.37 0.4,0.59 0.09,0.22 0.14,0.46 0.14,0.7z"/>
  </g>
 </g>
</svg>
