<?xml version="1.0" encoding="UTF-8"?>
<!DOCTYPE svg PUBLIC "-//W3C//DTD SVG 1.1//EN" "http://www.w3.org/Graphics/SVG/1.1/DTD/svg11.dtd">
<!-- Creator: CorelDRAW -->
<svg xmlns="http://www.w3.org/2000/svg" xml:space="preserve" width="4.7333mm" height="7.5586mm" version="1.1" style="shape-rendering:geometricPrecision; text-rendering:geometricPrecision; image-rendering:optimizeQuality; fill-rule:evenodd; clip-rule:evenodd"
viewBox="0 0 6.04 9.64"
 xmlns:xlink="http://www.w3.org/1999/xlink"
 xmlns:xodm="http://www.corel.com/coreldraw/odm/2003">
 <defs>
  <style type="text/css">
   <![CDATA[
    .str0 {stroke:#16A34A;stroke-width:0.64;stroke-linecap:round;stroke-linejoin:round;stroke-miterlimit:4}
    .fil0 {fill:none;fill-rule:nonzero}
   ]]>
  </style>
 </defs>
 <g id="Layer_x0020_1">
  <metadata id="CorelCorpID_0Corel-Layer"/>
  <g id="_1986271624224">
   <path class="fil0 str0" d="M4.58 5.22l0.68 3.84c0.02,0.1 -0.02,0.18 -0.11,0.23 -0.09,0.05 -0.18,0.05 -0.26,-0.02l-1.61 -1.21c-0.08,-0.06 -0.17,-0.09 -0.27,-0.09 -0.1,0 -0.19,0.03 -0.27,0.09l-1.61 1.21c-0.08,0.07 -0.17,0.07 -0.26,0.02 -0.09,-0.05 -0.13,-0.13 -0.11,-0.23l0.68 -3.84"/>
   <path class="fil0 str0" d="M5.72 3.02c0,0.18 -0.02,0.35 -0.05,0.53 -0.03,0.17 -0.09,0.34 -0.15,0.51 -0.07,0.16 -0.15,0.32 -0.25,0.47 -0.1,0.15 -0.21,0.28 -0.34,0.41 -0.13,0.13 -0.26,0.24 -0.41,0.34 -0.15,0.1 -0.3,0.18 -0.47,0.25 -0.16,0.07 -0.33,0.12 -0.51,0.15 -0.17,0.03 -0.35,0.05 -0.53,0.05 -0.18,0 -0.35,-0.02 -0.53,-0.05 -0.17,-0.03 -0.34,-0.09 -0.51,-0.15 -0.16,-0.07 -0.32,-0.15 -0.47,-0.25 -0.15,-0.1 -0.28,-0.21 -0.41,-0.34 -0.13,-0.13 -0.24,-0.26 -0.34,-0.41 -0.1,-0.15 -0.18,-0.3 -0.25,-0.47 -0.07,-0.16 -0.12,-0.33 -0.15,-0.51 -0.03,-0.17 -0.05,-0.35 -0.05,-0.53 0,-0.18 0.02,-0.35 0.05,-0.53 0.03,-0.17 0.09,-0.34 0.15,-0.51 0.07,-0.16 0.15,-0.32 0.25,-0.47 0.1,-0.15 0.21,-0.28 0.34,-0.41 0.13,-0.13 0.26,-0.24 0.41,-0.34 0.15,-0.1 0.3,-0.18 0.47,-0.25 0.16,-0.07 0.33,-0.12 0.51,-0.15 0.17,-0.03 0.35,-0.05 0.53,-0.05 0.18,0 0.35,0.02 0.53,0.05 0.17,0.03 0.34,0.09 0.51,0.15 0.16,0.07 0.32,0.15 0.47,0.25 0.15,0.1 0.28,0.21 0.41,0.34 0.13,0.13 0.24,0.26 0.34,0.41 0.1,0.15 0.18,0.3 0.25,0.47 0.07,0.16 0.12,0.33 0.15,0.51 0.03,0.17 0.05,0.35 0.05,0.53z"/>
  </g>
 </g>
</svg>
