<?xml version="1.0" encoding="UTF-8"?>
<!DOCTYPE svg PUBLIC "-//W3C//DTD SVG 1.1//EN" "http://www.w3.org/Graphics/SVG/1.1/DTD/svg11.dtd">
<!-- Creator: CorelDRAW -->
<svg xmlns="http://www.w3.org/2000/svg" xml:space="preserve" width="7.5595mm" height="7.2307mm" version="1.1" style="shape-rendering:geometricPrecision; text-rendering:geometricPrecision; image-rendering:optimizeQuality; fill-rule:evenodd; clip-rule:evenodd"
viewBox="0 0 16.12 15.42"
 xmlns:xlink="http://www.w3.org/1999/xlink"
 xmlns:xodm="http://www.corel.com/coreldraw/odm/2003">
 <defs>
  <style type="text/css">
   <![CDATA[
    .str0 {stroke:#16A34A;stroke-width:1.07;stroke-linecap:round;stroke-linejoin:round;stroke-miterlimit:4}
    .fil0 {fill:none;fill-rule:nonzero}
   ]]>
  </style>
 </defs>
 <g id="Layer_x0020_1">
  <metadata id="CorelCorpID_0Corel-Layer"/>
  <path class="fil0 str0" d="M7.7 0.75c0.07,-0.15 0.19,-0.22 0.36,-0.22 0.17,0 0.28,0.07 0.36,0.22l1.74 3.52c0.12,0.24 0.28,0.43 0.49,0.58 0.21,0.15 0.45,0.25 0.71,0.29l3.89 0.57c0.16,0.02 0.27,0.11 0.32,0.27 0.05,0.16 0.02,0.29 -0.1,0.41l-2.81 2.74c-0.19,0.18 -0.32,0.4 -0.4,0.65 -0.08,0.25 -0.1,0.5 -0.06,0.76l0.66 3.87c0.03,0.16 -0.02,0.29 -0.16,0.39 -0.13,0.1 -0.28,0.11 -0.42,0.03l-3.47 -1.83c-0.23,-0.12 -0.48,-0.18 -0.74,-0.18 -0.26,0 -0.51,0.06 -0.74,0.18l-3.47 1.83c-0.15,0.08 -0.29,0.07 -0.42,-0.03 -0.13,-0.1 -0.19,-0.23 -0.16,-0.39l0.66 -3.87c0.04,-0.26 0.03,-0.51 -0.06,-0.76 -0.08,-0.25 -0.22,-0.47 -0.4,-0.65l-2.81 -2.74c-0.12,-0.12 -0.15,-0.25 -0.1,-0.41 0.05,-0.16 0.16,-0.25 0.32,-0.27l3.88 -0.57c0.26,-0.04 0.5,-0.13 0.71,-0.29 0.21,-0.15 0.38,-0.35 0.49,-0.58l1.74 -3.52z"/>
 </g>
</svg>
